<svg width="25" height="25" viewBox="0 0 25 25" fill="none" xmlns="http://www.w3.org/2000/svg">
<g clip-path="url(#clip0_4_6)">
<path d="M6.13162 16.9706C6.13162 17.6019 6.64427 18.1146 7.27562 18.1146H15.3568C15.9882 18.1146 16.5008 17.6019 16.5008 16.9706C16.5008 16.3392 15.9882 15.8266 15.3568 15.8266L10.0308 15.8291L17.7787 8.08123C18.2257 7.63424 18.2257 6.91198 17.7787 6.46499C17.3317 6.01799 16.6094 6.01799 16.1624 6.46499L8.41709 14.2103L8.41456 8.88935C8.41456 8.25801 7.90191 7.74535 7.27056 7.74535C6.63922 7.74535 6.12657 8.25801 6.12657 8.88935L6.12657 16.9706H6.13162Z" fill="#FE7A38"/>
</g>
<defs>
<clipPath id="clip0_4_6">
<rect width="16" height="18.2857" fill="white" transform="translate(24.2437 12.93) rotate(135)"/>
</clipPath>
</defs>
</svg>
