<svg width="24" height="24" viewBox="0 0 24 24" fill="none" xmlns="http://www.w3.org/2000/svg">
<g clip-path="url(#clip0_2_9)">
<path d="M6.74531 18.6844C6.15937 18.4734 5.85469 17.8266 6.06562 17.2453C6.88594 14.9719 9.32344 13.5 12 13.5C14.6766 13.5 17.1141 14.9719 17.9344 17.2453C18.1453 17.8266 17.8406 18.4734 17.2547 18.6844C16.6734 18.8953 16.0266 18.5906 15.8156 18.0047C15.3844 16.8047 13.9313 15.75 12 15.75C10.0687 15.75 8.61563 16.8047 8.18438 18.0047C7.97344 18.5906 7.32656 18.8953 6.74531 18.6844ZM9.76875 9.75C9.76875 10.5797 9.09375 11.25 8.26875 11.25C7.43906 11.25 6.76875 10.5797 6.76875 9.75C6.76875 8.92031 7.43906 8.25 8.26875 8.25C9.09375 8.25 9.76875 8.92031 9.76875 9.75ZM14.2687 9.75C14.2687 8.92031 14.9391 8.25 15.7687 8.25C16.5937 8.25 17.2687 8.92031 17.2687 9.75C17.2687 10.5797 16.5937 11.25 15.7687 11.25C14.9391 11.25 14.2687 10.5797 14.2687 9.75ZM24 12C24 18.6281 18.6281 24 12 24C5.37188 24 0 18.6281 0 12C0 5.37188 5.37188 0 12 0C18.6281 0 24 5.37188 24 12ZM12 2.25C6.61406 2.25 2.25 6.61406 2.25 12C2.25 17.3859 6.61406 21.75 12 21.75C17.3859 21.75 21.75 17.3859 21.75 12C21.75 6.61406 17.3859 2.25 12 2.25Z" fill="#E6484D"/>
</g>
<defs>
<clipPath id="clip0_2_9">
<rect width="24" height="24" fill="white"/>
</clipPath>
</defs>
</svg>
