<svg width="24" height="24" viewBox="0 0 24 24" fill="none" xmlns="http://www.w3.org/2000/svg">
<g clip-path="url(#clip0_2_3)">
<path d="M6.76875 9.75C6.76875 8.92031 7.43906 8.25 8.26875 8.25C9.09375 8.25 9.76875 8.92031 9.76875 9.75C9.76875 10.5797 9.09375 11.25 8.26875 11.25C7.43906 11.25 6.76875 10.5797 6.76875 9.75ZM17.2687 9.75C17.2687 10.5797 16.5937 11.25 15.7687 11.25C14.9391 11.25 14.2687 10.5797 14.2687 9.75C14.2687 8.92031 14.9391 8.25 15.7687 8.25C16.5937 8.25 17.2687 8.92031 17.2687 9.75ZM15.375 15.375C15.9984 15.375 16.5 15.8766 16.5 16.5C16.5 17.1234 15.9984 17.625 15.375 17.625H8.625C8.00156 17.625 7.5 17.1234 7.5 16.5C7.5 15.8766 8.00156 15.375 8.625 15.375H15.375ZM24 12C24 18.6281 18.6281 24 12 24C5.37188 24 0 18.6281 0 12C0 5.37188 5.37188 0 12 0C18.6281 0 24 5.37188 24 12ZM12 21.75C17.3859 21.75 21.75 17.3859 21.75 12C21.75 6.61406 17.3859 2.25 12 2.25C6.61406 2.25 2.25 6.61406 2.25 12C2.25 17.3859 6.61406 21.75 12 21.75Z" fill="#FFA01C"/>
</g>
<defs>
<clipPath id="clip0_2_3">
<rect width="24" height="24" fill="white"/>
</clipPath>
</defs>
</svg>
