<svg width="25" height="25" viewBox="0 0 25 25" fill="none" xmlns="http://www.w3.org/2000/svg">
<g clip-path="url(#clip0_4_2)">
<path d="M18.112 7.27311C18.112 6.64176 17.5994 6.12911 16.968 6.12911H8.88682C8.25547 6.12911 7.74282 6.64176 7.74282 7.27311C7.74282 7.90445 8.25547 8.41711 8.88682 8.41711L14.2128 8.41458L6.46498 16.1625C6.01798 16.6094 6.01798 17.3317 6.46498 17.7787C6.91197 18.2257 7.63423 18.2257 8.08122 17.7787L15.8266 10.0334L15.8291 15.3543C15.8291 15.9857 16.3417 16.4983 16.9731 16.4983C17.6044 16.4983 18.1171 15.9857 18.1171 15.3543L18.1171 7.27311H18.112Z" fill="#337BDC"/>
</g>
<defs>
<clipPath id="clip0_4_2">
<rect width="16" height="18.2857" fill="white" transform="translate(0 11.3137) rotate(-45)"/>
</clipPath>
</defs>
</svg>
